# xmcd
#
# Track frame offsets: 
#        150
#        11587
#        23112
#        34484
#        46158
#        56631
#        68268
#        80246
#        88767
#        100027
#        111399
#        124722
#        138006
#        149118
#        160155
#        172805
#        182904
#        197129
#        208278
#        220177
#        233389
#        243736
#        256511
#        268559
#        280495
#
# Disc length: 3887 seconds
#
# Revision: 1
# Processed by: cddbd v1.5.2PL0 Copyright (c) Steve Scherf et al.
# Submitted via: ExactAudioCopyFreeDBPlugin 1.0
#
DISCID=680f2d19
DTITLE=Jim Reeves - Welcome To My World - CD 13
DYEAR=2001
DGENRE=Country
TTITLE0=Mexicali Rose
TTITLE1=Carolina Moon
TTITLE2=Moon River
TTITLE3=When I Lost You
TTITLE4=It's Only A Paper Moon
TTITLE5=Roses
TTITLE6=There's A New Man Over My Shoulder
TTITLE7=One Dozen Roses
TTITLE8=Moonlight And Roses
TTITLE9=What's In It For Me
TTITLE10=Rosa Rio
TTITLE11=Oh What It Seemed To Be
TTITLE12=I Guess I'm Crazy
TTITLE13=Angels Don't Lie
TTITLE14=Not Until The Next Time
TTITLE15=I Won't Come In While He's There
TTITLE16=This Is It
TTITLE17=Make The World Go Away
TTITLE18=There's That Smile Again
TTITLE19=You'll Never Know
TTITLE20=Is It Really Over
TTITLE21=I Can't Stop Loving You
TTITLE22=In The Misty Moonlight
TTITLE23=Missing You
TTITLE24=Maureen
EXTD=
EXTT0=
EXTT1=
EXTT2=
EXTT3=
EXTT4=
EXTT5=
EXTT6=
EXTT7=
EXTT8=
EXTT9=
EXTT10=
EXTT11=
EXTT12=
EXTT13=
EXTT14=
EXTT15=
EXTT16=
EXTT17=
EXTT18=
EXTT19=
EXTT20=
EXTT21=
EXTT22=
EXTT23=
EXTT24=
PLAYORDER=
